<?xml version="1.0" encoding="utf-8"?>
<!-- Generator: Adobe Illustrator 25.2.1, SVG Export Plug-In . SVG Version: 6.00 Build 0)  -->
<svg version="1.1" id="Слой_1" xmlns="http://www.w3.org/2000/svg" xmlns:xlink="http://www.w3.org/1999/xlink" x="0px" y="0px"
	 viewBox="0 0 809.5 384.1" style="enable-background:new 0 0 809.5 384.1;" xml:space="preserve">
<style type="text/css">
	.st0{fill:#D94216;}
	.st1{fill:#FDF9F8;}
</style>
<path className="st0" d="M675,22.2c5.9,0.1,11.8,0.3,17.6,0.7c16.6,1.2,32.8,4.2,47.7,12.1c18.6,9.8,30.8,25.1,37.8,44.7
	c4,11.2,6.1,22.8,6.6,34.6c0.8,21.7,0.6,43.5,0.2,65.2c-0.2,14.4-2.8,28.4-8.3,41.8c-3.6,8.7-8.3,16.7-14.6,23.8
	c-6.2,7-13.5,12.5-21.7,16.9c-7.1,3.8-14.7,6.5-22.6,8.4c-5.8,1.4-11.7,2.4-17.7,3c-3.4,0.4-6.8,0.7-10.2,0.9
	c-6.5,0.4-13,0.4-19.5,0.5c-18.2,0.1-36.5,0-54.7,0c-5.3,0-10.6-0.3-15.9-0.2c-3.3,0-6.5-0.3-9.8-0.6c-6.2-0.7-12.3-1.8-18.2-4.1
	c-5.9-2.3-11.2-5.6-16-9.7c-2.7-2.4-5.3-4.9-7.8-7.5c-3.8-4-7.1-8.4-10.5-12.8c-3.6-4.6-7.1-9.3-10.5-13.9
	c-4.8-6.5-10.1-12.7-14.1-19.7c-2.1-3.6-3.5-7.5-4.1-11.7c-0.8-6.1,0.5-11.8,3.2-17.2c2.8-5.7,6.7-10.6,10.5-15.7
	c4.4-5.9,8.8-11.7,13.2-17.6c4.9-6.5,9.8-13.1,14.8-19.6c4.4-5.8,8.7-11.5,13-17.3c0.3-0.4,0.6-0.6,1.1-0.6c0.2,0,0.4,0,0.6,0
	c34.4,0,68.7,0,103.1,0c0.3,0,0.6,0,1.2,0c-1.9,2.6-3.7,5-5.5,7.4c-10,13.3-19.9,26.5-29.9,39.8c-7.4,9.8-14.8,19.6-22.2,29.4
	c-4.6,6.1-9.1,12.2-13.6,18.3c-2.6,3.5-4.7,7.3-5.5,11.7c-1.6,9,3.3,16.3,12.2,18.4c4.3,1,8.7,1.1,13.1,1.1c17.9,0,35.8,0,53.7,0
	c5.7,0,11.3-0.5,16.5-3.2c5.4-2.8,9-7,10.8-12.8c1.4-4.5,1.9-9,1.9-13.6c0-36.5,0-72.9,0-109.4c0-4.8-0.5-9.7-2.1-14.3
	c-0.8-2.3-1.9-4.5-3.5-6.5c-4-4.9-9.4-7.2-15.6-8.1c-3.9-0.6-7.8-0.8-11.7-0.8c-34.1,0-68.2,0-102.4,0c-1.5,0-1.8-0.4-1.8-1.9
	c0.1-5.6-0.2-11.3,0.1-16.9c0.7-10.5,6.5-20.3,19.2-22.6c1.6-0.3,3.3-0.1,4.8-0.9c0.4,0,0.8,0,1.2,0c0.2,0.4,0.6,0.2,0.9,0.2
	c21,0,41.9,0,62.9,0C660.4,22.2,667.7,22.2,675,22.2z"/>
<path className="st1" d="M675,22.2c-7.3,0-14.6,0-21.9,0c-21,0-41.9,0-62.9,0c-0.3,0-0.7,0.2-0.9-0.2c28.6,0,57.2,0,85.8,0
	C675,22.1,675,22.2,675,22.2z"/>
<path className="st0" d="M154.3,106.3c28.7,0,57.5,0,86.2,0c7.3,0,14.5,0.1,21.8,0.8c8.7,0.9,17.2,2.5,25,6.8c7,3.8,12.9,9,18.2,14.9
	c11,12.3,20.4,25.9,30.4,39.1c3.3,4.3,6.2,8.9,7.9,14.2c2.2,6.8,1.7,13.5-1.3,20.1c-2.9,6.6-7.4,12.1-11.6,17.8
	c-8.8,11.8-17.7,23.5-26.5,35.3c-4.7,6.2-9.3,12.4-13.9,18.6c-0.5,0.7-1.1,1-2.1,1c-34.1,0-68.2,0-102.4,0c-0.5,0-1.1,0.3-1.3-0.2
	c-0.3-0.5,0.4-0.8,0.6-1.2c4.3-5.8,8.5-11.6,12.9-17.3c8.8-11.7,17.6-23.4,26.4-35.1c9.1-12.1,18-24.2,27.1-36.2c3-4,6.1-7.9,8-12.6
	c1.9-4.7,2.2-9.4,0.1-14.1c-2.4-5.4-7-7.8-12.5-8.9c-4.2-0.8-8.6-0.8-12.9-0.8c-26.7,0-53.4,0-80.1,0c-1.4,0-1.8,0.4-1.8,1.8
	c0,68.9,0,137.9,0.1,206.8c0,1.5-0.3,1.9-1.9,1.9c-26.9-0.1-53.7-0.1-80.6,0c-1.6,0-1.9-0.5-1.9-2c0-68.9,0-137.8,0-206.7
	c0-2.1,0.3-1.9-1.9-1.9c-12.8,0-25.6,0-38.4,0c-1.3,0-1.6-0.4-1.6-1.6c0.2-6.1-0.2-12.2,0.3-18.2c0.9-11.8,9-20.3,20.7-21.8
	c3.3-0.4,6.6-0.5,9.9-0.5C89.6,106.3,121.9,106.3,154.3,106.3C154.3,106.3,154.3,106.3,154.3,106.3z"/>
<path className="st0" d="M309.8,274.7c2.3-3.1,4.5-6.1,6.8-9c2.7-3.5,5.4-6.9,8.1-10.4c3.5-4.6,6.9-9.2,10.5-13.7
	c4.6-5.9,8.9-11.9,13.4-17.8c3.7-4.8,7.5-9.6,11.2-14.5c4.5-5.9,8.9-11.9,13.4-17.8c3.7-4.8,7.5-9.6,11.2-14.5
	c2.6-3.4,5.1-6.9,7.8-10.3c3.7-4.9,7.5-9.7,11.2-14.6c2.6-3.4,5.1-6.9,7.8-10.3c3.7-4.9,7.5-9.7,11.2-14.6c2.6-3.4,5.2-6.9,7.8-10.3
	c2.6-3.4,5.1-6.8,7.7-10.2c0.2-0.3,0.5-0.5,0.9-0.4c0.2,0,0.5,0,0.7,0c33.9,0,67.8,0,101.8,0c0.4,0,0.8,0,1.4,0
	c-1.8,2.4-3.4,4.6-5,6.7c-8,10.7-16,21.5-24,32.2c-6.6,8.8-13.2,17.6-19.8,26.5c-7.6,10.2-15.2,20.5-22.9,30.7
	c-5.7,7.7-11.4,15.3-17.2,23c-7.3,9.8-14.7,19.7-22,29.5c-4.7,6.3-9.4,12.7-14.1,19c-0.6,0.8-1.3,0.9-2.2,0.9c-18.5,0-37.1,0-55.6,0
	c-16.1,0-32.1,0-48.2,0C311,274.7,310.5,274.7,309.8,274.7z"/>
</svg>
